<?xml version="1.0" encoding="utf-8"?>
<!-- Generator: Adobe Illustrator 24.3.0, SVG Export Plug-In . SVG Version: 6.00 Build 0)  -->
<svg version="1.1" id="圖層_1" xmlns="http://www.w3.org/2000/svg" xmlns:xlink="http://www.w3.org/1999/xlink" x="0px" y="0px"
	 viewBox="0 0 1024 768" style="enable-background:new 0 0 1024 768;" xml:space="preserve">
<style type="text/css">
	.st0{fill:#FFFFFF;}
</style>
<g>
	<path class="st0" d="M759.58,218.5H656.5v-41.68c0-13.98-11.33-25.32-25.32-25.32H415.82c-13.98,0-25.32,11.33-25.32,25.32v41.68
		H286.42c-29.78,0-53.92,24.14-53.92,53.92v267.16c0,29.78,24.14,53.92,53.92,53.92h473.16c29.78,0,53.92-24.14,53.92-53.92V272.42
		C813.5,242.64,789.36,218.5,759.58,218.5z"/>
	<g>
		<path d="M759.58,200.5c-30.13,0-60.25,0-90.38,0c-4.23,0-8.47,0-12.7,0c6,6,12,12,18,18c0-12.57,0-25.15,0-37.72
			c0-9.64-1.41-19.3-6.97-27.46c-8.37-12.29-21.48-19.49-36.4-19.81c-17.55-0.38-35.15,0-52.71,0c-32.73,0-65.45,0-98.18,0
			c-21,0-42-0.09-63,0c-24.18,0.1-43.85,18.16-44.73,42.62c-0.46,12.67-0.02,25.43-0.02,38.1c0,1.43,0,2.85,0,4.28c6-6,12-12,18-18
			c-23.05,0-46.1,0-69.15,0c-10.86,0-21.73,0-32.59,0c-19.54,0-38.01,6.57-52.27,20.16c-14.27,13.61-21.84,32.78-21.99,52.35
			c-0.04,5.02,0,10.04,0,15.06c0,24.1,0,48.2,0,72.29c0,54.85,0,109.7,0,164.56c0,4.75-0.04,9.51,0,14.26
			c0.18,20.22,8.45,40.51,23.91,53.9c13.71,11.88,30.54,18.35,48.73,18.42c3.27,0.01,6.54,0,9.8,0c42.61,0,85.22,0,127.83,0
			c61.78,0,123.56,0,185.34,0c44.79,0,89.58,0,134.37,0c16.12,0,31.15-0.18,46.38-7.22c23.66-10.94,38.54-34.98,40.49-60.55
			c0.33-4.34,0.16-8.75,0.16-13.09c0-52.92,0-105.85,0-158.77c0-25.76,0-51.52,0-77.28c0-20.56,0.99-40.69-10.26-59.2
			C808.14,213.82,784.71,200.82,759.58,200.5c-9.42-0.12-18.43,8.36-18,18c0.44,9.85,7.91,17.87,18,18
			c1.39,0.02,2.77,0.13,4.15,0.16c4.54,0.08-3.78-0.93,0.61,0.04c2.62,0.58,5.2,1.13,7.75,1.99c0.67,0.23,1.97,0.51,2.48,0.91
			c-3.24-2.53-0.77-0.3,0.48,0.34c2.51,1.29,5.71,2.79,7.71,4.81c-3.39-3.42,1.4,1.45,2.22,2.27c0.92,0.92,1.74,1.91,2.64,2.84
			c3,3.1-1.98-3.18,0.39,0.43c1.19,1.82,2.4,3.6,3.44,5.51c0.51,0.95,1.59,2.44,1.74,3.51c-0.94-2.29-1.05-2.51-0.32-0.65
			c0.3,0.83,0.59,1.66,0.85,2.51c0.66,2.14,1.14,4.3,1.58,6.49c0.9,4.43-0.04-3.95,0.04,0.61c0.02,1.38,0.14,2.76,0.16,4.15
			c0,0.23,0,0.47,0,0.7c0.01,1.68,0,3.36,0,5.05c0,19.51,0,39.02,0,58.53c0,56.75,0,113.51,0,170.26c0,8.27,0,16.54,0,24.8
			c0,2.08,0,4.16,0,6.24c0,0.44,0,0.88,0,1.33c0,0.08,0,0.16,0,0.24c-0.01,1.16-0.01,1.62-0.07,2.78c-0.06,1.18,0.23,5.29,0.09,0.65
			c0.07,2.46-1.08,5.49-1.8,7.82c-0.33,1.07-0.65,2.83-1.32,3.74c2-2.74,0.85-1.82,0.24-0.69c-1.25,2.3-2.42,4.59-3.89,6.77
			c-0.25,0.36-0.49,0.71-0.74,1.07c-1.17,1.59-1.02,1.4,0.45-0.56c-0.37,1.13-2.2,2.52-3.03,3.37c-0.75,0.77-1.53,1.52-2.32,2.25
			c-0.69,0.63-3.61,3.77-0.35,0.48c-1.72,1.74-4.43,3.05-6.56,4.2c-0.77,0.42-1.56,0.77-2.33,1.19c-3.82,2.09,3.64-1.08-0.54,0.23
			c-3,0.94-5.93,1.75-8.99,2.43c-4.27,0.94,2.83-0.07,0.07-0.02c-1.14,0.02-2.29,0.17-3.44,0.2c-0.54,0.01-0.97,0.01-1.46,0.02
			c-0.24,0-0.49,0-0.73,0c-1.18,0-2.36,0-3.54,0c-36.32,0-72.64,0-108.97,0c-59.6,0-119.19,0-178.79,0c-49.64,0-99.28,0-148.92,0
			c-10.33,0-20.65,0.03-30.98,0c-1.77-0.01-3.54-0.13-5.31-0.16c-4.41-0.08,2.73,0.63,0.06,0.07c-1.1-0.23-2.2-0.4-3.3-0.65
			c-2.21-0.51-5.73-1-7.59-2.36c3.47,2.53,0.65,0.23-0.48-0.34c-0.77-0.4-1.54-0.81-2.29-1.24c-1.13-0.65-2.23-1.34-3.31-2.06
			c-0.72-0.48-1.42-0.99-2.11-1.5c1.93,1.5,2.13,1.63,0.62,0.38c-1.71-1.66-3.39-3.31-5.06-5c-0.76-0.77-3.04-2.83-0.05,0.13
			c-0.86-0.86-1.56-2.18-2.22-3.2c-1.18-1.84-3.42-4.68-3.73-6.87c0.45,3.15,0.74,1.97,0.32,0.65c-0.53-1.69-1.13-3.34-1.57-5.06
			c-0.34-1.3-0.57-2.62-0.86-3.93c-0.98-4.43,0.15,3.96-0.04-0.61c-0.06-1.39-0.14-2.77-0.16-4.17c0-0.31,0-0.62,0-0.93
			c-0.15-44.04,0-88.08,0-132.13c0-44.28-0.13-88.56,0-132.84c0-0.39,0-0.78,0-1.16c0.01-0.49,0-0.94,0.02-1.47
			c0.03-1.04-0.2-3.19,0.26-4.12c-0.38,2.53-0.41,2.78-0.08,0.75c0.16-0.88,0.34-1.76,0.54-2.63c0.5-2.17,1.23-4.24,1.89-6.36
			c1.31-4.18-1.85,3.29,0.23-0.54c0.62-1.15,1.17-2.33,1.83-3.46c0.99-1.72,2.15-4.02,3.57-5.42c-3.29,3.26-0.15,0.34,0.48-0.35
			c1.16-1.28,2.38-2.5,3.66-3.66c0.72-0.65,3.53-3.79,0.35-0.48c0.53-0.55,1.52-1.1,2.11-1.5c2.18-1.47,4.47-2.64,6.77-3.89
			c3.83-2.08-3.64,1.08,0.54-0.23c1.05-0.33,2.08-0.72,3.14-1.04c1.07-0.32,2.14-0.6,3.22-0.85c0.87-0.2,1.75-0.38,2.63-0.54
			c2.03-0.33,1.78-0.3-0.75,0.08c2.02-0.99,7.17-0.28,9.72-0.28c26.38,0,52.75,0,79.13,0c6.92,0,13.83,0,20.75,0
			c9.73,0,18-8.25,18-18c0-12.14,0-24.28,0-36.42c0-1.7,0.09-3.44,0-5.14c-0.22-4.12-1.06,2.64-0.06-0.77
			c0.28-0.94,0.84-5.24-0.15-0.73c0.13-0.58,3.04-6.51,0.61-1.88c0.56-1.07,1.85-1.96,2.68-2.82c2.69-2.79-3.03,1.26,0.54-0.25
			c0.38-0.21,0.76-0.42,1.14-0.63c1.79-0.86,1.57-0.77-0.67,0.28c0.23-0.42,3.42-0.99,3.9-0.96c-4.28-0.27-1.15,0.32,0.05,0.31
			c18.37-0.16,36.74,0,55.11,0c52.23,0,104.46,0,156.69,0c0.78,0,1.57,0.03,2.35,0c0.15-0.01,0.31,0.01,0.46,0
			c0.47-0.03,1.3,1.75,1.41,0.04c-2.51-0.44-2.76-0.47-0.74-0.1c0.87,0.19,1.73,0.43,2.57,0.71c-0.62-0.28-1.23-0.57-1.85-0.85
			c0.79,0.36,1.57,0.76,2.32,1.2c1.64,1.09,1.49,0.89-0.44-0.59c0.67,0.55,1.31,1.13,1.92,1.74c0.3,0.31,0.6,0.63,0.89,0.94
			c1.27,1.5,1.13,1.31-0.44-0.56c0.48,0.73,0.92,1.48,1.32,2.25c0.86,1.79,0.77,1.57-0.28-0.67c0.29,0.13,0.57,2.13,0.71,2.57
			c1.2,4,0.21-3.66-0.06,0.68c-0.04,0.6,0,1.21,0,1.81c0.04,13.28,0,26.56,0,39.84c0,9.73,8.25,18,18,18c30.13,0,60.25,0,90.38,0
			c4.23,0,8.47,0,12.7,0c9.42,0,18.44-8.28,18-18C777.14,208.75,769.67,200.5,759.58,200.5z"/>
	</g>
</g>
<g>
	<circle class="st0" cx="523" cy="398" r="116.5"/>
	<g>
		<path d="M621.5,398c-0.02,2.8-0.1,5.59-0.3,8.38c-0.1,1.38-0.24,2.75-0.37,4.13c-0.24,2.72-0.56-0.25,0.13-0.7
			c-0.27,0.17-0.36,2.33-0.42,2.7c-0.92,5.55-2.26,11.03-3.98,16.38c-0.82,2.54-1.86,5-2.71,7.52c-0.65,1.94,0.52-1.17,0.54-1.24
			c-0.24,0.8-0.73,1.65-1.08,2.42c-0.64,1.4-1.32,2.78-2.02,4.16c-2.49,4.88-5.31,9.58-8.46,14.06c-0.75,1.07-1.55,2.11-2.31,3.17
			c2.03-2.85,0.3-0.41-0.84,0.96c-1.81,2.17-3.71,4.28-5.67,6.31c-1.82,1.88-3.69,3.69-5.63,5.45c-0.97,0.88-1.95,1.74-2.95,2.58
			c-0.6,0.5-4.11,3.29-2.25,1.87c1.99-1.52-1.94,1.39-2.39,1.7c-1.07,0.75-2.16,1.49-3.25,2.2c-2.38,1.56-4.82,3.02-7.31,4.4
			c-2.31,1.28-4.66,2.47-7.05,3.59c-0.6,0.28-4.37,1.88-2.09,0.97c2.21-0.89-2.05,0.77-2.79,1.04c-5.46,2-11.08,3.59-16.78,4.75
			c-1.33,0.27-2.67,0.52-4.01,0.74c-0.67,0.11-1.35,0.2-2.02,0.32c-2.13,0.36,1.37-0.24,1.39-0.19c-0.05-0.15-8.72,0.71-9.67,0.74
			c-5.85,0.21-11.59-0.22-17.4-0.67c-2.13-0.16,1.32,0.11,1.38,0.21c-0.09-0.17-1.8-0.27-2.03-0.31c-1.34-0.22-2.68-0.46-4.02-0.72
			c-3.09-0.61-6.15-1.34-9.19-2.2c-2.57-0.73-5.12-1.55-7.64-2.45c-1.25-0.45-2.47-0.99-3.73-1.42c-1.94-0.65,1.17,0.52,1.24,0.54
			c-0.82-0.25-1.64-0.72-2.42-1.08c-5.18-2.39-10.18-5.15-14.96-8.27c-2.2-1.44-4.29-3-6.43-4.52c2.48,1.76,0.94,0.73-0.46-0.43
			c-1.17-0.97-2.33-1.97-3.47-2.98c-4.22-3.77-8.16-7.85-11.79-12.19c-0.42-0.5-2.93-3.68-1.45-1.75c1.48,1.93-0.95-1.33-1.32-1.85
			c-1.77-2.49-3.45-5.06-5.02-7.68c-1.35-2.26-2.63-4.56-3.82-6.91c-0.6-1.18-1.18-2.36-1.74-3.56c-0.28-0.6-0.55-1.2-0.83-1.8
			c-0.95-2.05-0.38-0.36,0.26,0.64c-2.87-4.52-4.08-11.41-5.31-16.54c-0.63-2.64-1.17-5.3-1.62-7.97c-0.11-0.67-0.2-1.35-0.32-2.02
			c-0.36-2.13,0.24,1.37,0.19,1.39c0.09-0.03-0.44-4.39-0.47-4.81c-0.46-6.04-0.46-12.11,0-18.14c0.11-1.38,0.28-2.75,0.39-4.12
			c0.16-2.13-0.11,1.32-0.21,1.38c0.17-0.09,0.27-1.8,0.31-2.03c0.47-2.9,1.04-5.79,1.73-8.65c1.23-5.11,2.45-12.04,5.31-16.54
			c-1.58,2.5-0.52,1.19,0.29-0.56c0.55-1.2,1.13-2.39,1.72-3.57c1.28-2.55,2.66-5.05,4.12-7.49c1.46-2.44,3.01-4.82,4.64-7.15
			c0.75-1.07,1.55-2.11,2.31-3.17c-2.08,2.92-0.21,0.3,0.85-0.96c3.63-4.34,7.57-8.42,11.79-12.19c0.97-0.87,1.96-1.73,2.96-2.56
			c0.5-0.42,3.68-2.93,1.75-1.45c-1.93,1.48,1.33-0.95,1.85-1.32c1.25-0.89,2.51-1.75,3.79-2.58c4.77-3.12,9.78-5.89,14.96-8.27
			c1.76-0.81,3.06-1.87,0.56-0.29c1.05-0.67,2.55-1.01,3.72-1.44c2.72-1,5.48-1.89,8.26-2.68c2.81-0.8,5.65-1.49,8.52-2.07
			c1.33-0.27,2.67-0.52,4.01-0.74c0.67-0.11,1.35-0.2,2.02-0.32c2.57-0.44-3.31,0.31-0.7,0.11c5.82-0.45,11.56-0.87,17.4-0.67
			c3.01,0.11,5.99,0.43,8.99,0.67c2.13,0.16-1.32-0.11-1.38-0.21c0.09,0.17,1.8,0.27,2.03,0.31c1.57,0.25,3.13,0.53,4.69,0.85
			c5.7,1.16,11.32,2.75,16.78,4.75c1.17,0.43,2.67,0.77,3.72,1.44c-2.5-1.58-1.19-0.52,0.56,0.29c2.6,1.2,5.15,2.49,7.65,3.87
			c2.3,1.27,4.55,2.62,6.76,4.05c1.28,0.83,2.55,1.68,3.8,2.56c0.64,0.45,4.25,3.13,2.39,1.7c-1.93-1.48,1.25,1.04,1.75,1.45
			c1,0.84,1.99,1.69,2.96,2.56c2.11,1.89,4.15,3.85,6.12,5.88c1.82,1.88,3.57,3.82,5.26,5.81c0.36,0.42,3.39,4.24,1.87,2.25
			c-1.42-1.86,1.25,1.75,1.7,2.39c3.15,4.48,5.97,9.18,8.46,14.06c0.6,1.18,1.18,2.36,1.74,3.56c0.37,0.8,0.71,1.62,1.09,2.41
			c0.9,1.85-0.49-1.2-0.52-1.25c1.44,2.27,2.13,5.59,2.95,8.14c1.72,5.35,3.05,10.83,3.98,16.38c0.07,0.4,0.27,2.61,0.42,2.7
			c-0.1-0.06-0.37-3.5-0.21-1.38c0.11,1.38,0.29,2.75,0.39,4.12C621.38,391.95,621.48,394.97,621.5,398c0.06,9.41,8.24,18.44,18,18
			c9.7-0.43,18.06-7.91,18-18c-0.34-56.66-36.12-106.81-89-126.54c-51.44-19.19-113.11-2.66-148.08,39.65
			c-18.31,22.15-29.13,48.47-31.52,77.13c-2.28,27.32,4.67,55.74,18.86,79.15c29.54,48.72,87.02,73.23,142.67,62.27
			c52.89-10.42,96.77-55.54,105.05-108.92c1.17-7.55,1.97-15.1,2.02-22.74c0.06-9.42-8.32-18.43-18-18
			C629.7,380.44,621.56,387.91,621.5,398z"/>
	</g>
</g>
<g>
	<circle cx="724.78" cy="311.15" r="24.28"/>
	<g>
		<path d="M743.06,311.15c-0.28,9.97-8.09,18.28-18.28,18.28c-9.98,0-18.28-8.3-18.28-18.28c0-9.98,8.3-18.28,18.28-18.28
			C734.97,292.87,742.79,301.18,743.06,311.15c0.21,7.71,12.22,7.74,12,0c-0.36-12.82-8-24.08-20.15-28.52
			c-11.67-4.26-25.32-0.49-33.26,9.02c-8.18,9.8-9.5,24.17-2.8,35.15c6.58,10.79,19.22,16.27,31.59,14.07
			c14.39-2.56,24.22-15.48,24.62-29.73C755.28,303.43,743.28,303.44,743.06,311.15z"/>
	</g>
</g>
</svg>
